<svg xmlns="http://www.w3.org/2000/svg" version="1.1" xmlns:xlink="http://www.w3.org/1999/xlink" xmlns:svgjs="http://svgjs.dev/svgjs" width="1000" height="1000" viewBox="0 0 1000 1000"><rect width="1000" height="1000" fill="#ffffff"></rect><g transform="matrix(0.7,0,0,0.7,149.57575757575745,378.2563155296078)"><svg viewBox="0 0 396 138" data-background-color="#ffffff" preserveAspectRatio="xMidYMid meet" height="348" width="1000" xmlns="http://www.w3.org/2000/svg" xmlns:xlink="http://www.w3.org/1999/xlink"><g id="tight-bounds" transform="matrix(1,0,0,1,0.24000000000006594,-0.03190288623102333)"><svg viewBox="0 0 395.51999999999987 138.06380577246205" height="138.06380577246205" width="395.51999999999987"><g><svg viewBox="0 0 668.896509981161 233.4910948521358" height="138.06380577246205" width="395.51999999999987"><g transform="matrix(1,0,0,1,0,32.269753340635276)"><svg viewBox="0 0 395.52000000000004 168.95158817086525" height="168.95158817086525" width="395.52000000000004"><g id="textblocktransform"><svg viewBox="0 0 395.52000000000004 168.95158817086525" height="168.95158817086525" width="395.52000000000004" id="textblock"><g><svg viewBox="0 0 395.52000000000004 168.95158817086525" height="168.95158817086525" width="395.52000000000004"><g transform="matrix(1,0,0,1,0,0)"><svg width="395.52000000000004" viewBox="2.25 -38.5 91.30000305175781 39" height="168.95158817086525" data-palette-color="#2a160c"><path d="M32.9-28.85L32.9-28.85Q32.9-26.2 32.05-24.1 31.2-22 29.38-20.55 27.55-19.1 24.63-18.3 21.7-17.5 17.5-17.5L17.5-17.5 13-17.5 13-7.85Q13-6 13.23-4.83 13.45-3.65 14.18-3 14.9-2.35 16.28-2.13 17.65-1.9 19.9-1.9L19.9-1.9 19.9 0 2.25 0 2.25-1.9Q4-1.95 5.08-2.2 6.15-2.45 6.75-3.05 7.35-3.65 7.55-4.75 7.75-5.85 7.75-7.6L7.75-7.6 7.75-30.9Q7.75-32.65 7.58-33.73 7.4-34.8 6.88-35.43 6.35-36.05 5.35-36.27 4.35-36.5 2.75-36.6L2.75-36.6 2.75-38.5 18.45-38.5Q25.35-38.5 29.13-35.95 32.9-33.4 32.9-28.85ZM13-35.3L13-20 16.55-20Q21.55-20 23.98-21.93 26.4-23.85 26.4-28.25L26.4-28.25Q26.4-32.5 24.48-34.33 22.55-36.15 18.45-36.15L18.45-36.15 13.85-36.15Q13-36.15 13-35.3L13-35.3ZM69.35-30L76.05-7.55 83.85-29.25Q84.55-31.2 84.85-32.35 85.15-33.5 85.15-34.35L85.15-34.35Q85.15-35.65 84.32-36.13 83.5-36.6 81.4-36.6L81.4-36.6 81.4-38.5 93.55-38.5 93.55-36.6Q91.25-36.6 90.07-35.65 88.9-34.7 88.1-32.55L88.1-32.55 75.55 0.5 73.8 0.5 64.2-27.95 53.55 0.5 51.8 0.5 41.4-28.2Q40.5-30.6 39.77-32.23 39.05-33.85 38.22-34.8 37.4-35.75 36.35-36.15 35.3-36.55 33.8-36.55L33.8-36.55 33.8-38.5 50.1-38.5 50.1-36.55Q47.55-36.55 46.52-36.1 45.5-35.65 45.5-34.35L45.5-34.35Q45.5-33.7 45.7-32.85 45.9-32 46.3-30.85L46.3-30.85 53.9-7.7 60.05-25Q60.75-26.95 61.42-28.63 62.1-30.3 62.5-31.65L62.5-31.65Q61.8-33.1 61.22-34.05 60.65-35 60.07-35.55 59.5-36.1 58.87-36.33 58.25-36.55 57.55-36.55L57.55-36.55 57.55-38.5 72.85-38.5 72.85-36.55Q71.4-36.55 70.5-36.45 69.6-36.35 69.12-36.13 68.65-35.9 68.47-35.5 68.3-35.1 68.3-34.55L68.3-34.55Q68.3-33.8 68.57-32.73 68.85-31.65 69.35-30L69.35-30Z" opacity="1" transform="matrix(1,0,0,1,0,0)" fill="#2a160c" class="undefined-text-0" data-fill-palette-color="primary" id="text-0"></path></svg></g></svg></g></svg></g></svg></g><g transform="matrix(1,0,0,1,435.40541512902524,0)"><svg viewBox="0 0 233.4910948521358 233.4910948521358" height="233.4910948521358" width="233.4910948521358"><g data-palette-color="#99592a"><rect width="63.82089925958379" height="233.4910948521358" fill="#99592a" stroke="transparent" data-fill-palette-color="accent" x="0" fill-opacity="1"></rect><rect width="63.82089925958379" height="233.4910948521358" fill="#99592a" stroke="transparent" data-fill-palette-color="accent" x="77.83036495071194" fill-opacity="0.75"></rect><rect width="63.82089925958379" height="233.4910948521358" fill="#99592a" stroke="transparent" data-fill-palette-color="accent" x="155.66072990142388" fill-opacity="0.5"></rect></g></svg></g></svg></g><defs></defs></svg><rect width="395.51999999999987" height="138.06380577246205" fill="none" stroke="none" visibility="hidden"></rect></g></svg></g></svg>